<?xml version="1.0" standalone="no"?>
<!DOCTYPE svg PUBLIC "-//W3C//DTD SVG 20010904//EN"
 "http://www.w3.org/TR/2001/REC-SVG-20010904/DTD/svg10.dtd">
<svg version="1.0" xmlns="http://www.w3.org/2000/svg"
 width="1920.000000pt" height="603.000000pt" viewBox="0 0 1920.000000 603.000000"
 preserveAspectRatio="xMidYMid meet">

<g transform="translate(0.000000,603.000000) scale(0.100000,-0.100000)"
fill="#000000" stroke="none">
<path d="M1740 4548 c-269 -28 -480 -123 -665 -299 -187 -180 -300 -392 -360
-680 -32 -154 -45 -459 -26 -640 68 -654 412 -1065 969 -1155 113 -18 378 -20
492 -4 171 24 318 68 448 134 76 39 232 146 232 160 0 9 -200 545 -206 555 -2
2 -41 -26 -88 -61 -175 -131 -296 -182 -474 -200 -100 -10 -128 -9 -196 5
-230 48 -377 201 -446 467 -28 108 -39 422 -20 564 50 370 216 556 496 556
187 0 347 -86 462 -250 25 -36 47 -67 48 -69 2 -2 106 79 231 179 125 101 230
185 232 186 8 7 -118 163 -194 239 -251 254 -549 354 -935 313z"/>
<path d="M11860 4040 l0 -240 -135 0 -135 0 0 -245 0 -245 135 0 135 0 0 -504
c0 -406 3 -520 15 -592 29 -168 113 -298 235 -363 100 -53 142 -63 311 -68
176 -6 297 9 429 53 88 30 210 92 217 111 4 10 -130 416 -143 432 -1 1 -29
-13 -61 -32 -80 -48 -125 -61 -196 -54 -70 6 -107 29 -124 78 -8 24 -12 163
-12 487 l-1 452 220 0 220 0 0 245 0 245 -220 0 -220 0 0 240 0 240 -335 0
-335 0 0 -240z"/>
<path d="M8283 3840 c-175 -22 -382 -94 -490 -169 -120 -85 -205 -190 -278
-344 -75 -158 -104 -307 -105 -526 0 -383 112 -658 342 -834 144 -110 319
-171 534 -186 324 -22 621 48 809 192 22 17 41 31 42 32 2 1 -31 82 -73 181
-41 98 -89 212 -106 252 l-30 73 -27 -23 c-114 -104 -288 -177 -419 -178 -82
0 -186 28 -240 64 -61 42 -115 122 -144 216 -20 65 -23 97 -23 230 0 214 32
327 116 411 63 63 92 74 200 74 96 0 97 0 153 -39 57 -39 127 -125 162 -199
11 -22 23 -36 31 -33 11 5 442 282 452 292 2 2 -11 29 -29 61 -99 176 -208
281 -384 367 -160 79 -323 107 -493 86z"/>
<path d="M3815 3833 c-11 -2 -55 -10 -97 -19 -121 -23 -304 -82 -410 -131 -54
-25 -98 -48 -98 -50 0 -9 184 -408 192 -418 5 -6 30 2 66 22 156 85 396 127
510 89 89 -30 132 -100 132 -217 l0 -57 -107 -7 c-167 -10 -429 -51 -519 -79
-190 -61 -370 -231 -425 -405 -16 -49 -21 -93 -22 -171 0 -188 50 -318 169
-437 119 -121 244 -167 454 -167 101 0 141 4 205 22 85 24 185 75 248 124 21
17 39 29 41 27 1 -2 14 -35 28 -74 l25 -70 281 -3 282 -2 0 692 c-1 751 -3
780 -55 913 -91 230 -286 372 -572 414 -69 11 -286 13 -328 4z m295 -1317 l0
-185 -76 -38 c-68 -33 -85 -37 -148 -37 -91 1 -138 17 -175 59 -41 47 -54 98
-41 165 17 92 62 144 152 176 40 14 197 40 261 43 l27 1 0 -184z"/>
<path d="M6160 3817 c-115 -33 -169 -58 -261 -122 -43 -30 -80 -51 -82 -47 -3
4 -8 32 -12 62 -12 100 22 90 -311 90 l-294 0 0 -995 0 -995 335 0 335 0 0
689 0 689 49 36 c185 136 368 124 446 -29 l30 -59 5 -660 5 -661 338 -3 338
-2 -3 727 c-4 718 -4 729 -26 808 -69 245 -196 385 -417 461 -71 24 -97 28
-235 31 -139 3 -164 1 -240 -20z"/>
<path d="M13987 3824 c-181 -33 -355 -113 -461 -214 -146 -139 -237 -315 -282
-545 -22 -114 -25 -395 -5 -505 72 -398 311 -664 673 -750 103 -24 349 -44
443 -35 157 15 405 91 521 161 60 36 124 91 124 107 0 13 -191 457 -197 457
-2 0 -30 -19 -61 -43 -135 -103 -221 -141 -346 -157 -139 -17 -287 8 -371 63
-80 53 -137 155 -147 267 l-3 35 609 3 609 2 -7 116 c-15 276 -74 497 -178
671 -53 90 -175 212 -264 265 -91 54 -202 93 -300 108 -96 13 -264 11 -357 -6z
m279 -449 c89 -37 159 -130 183 -243 21 -102 51 -92 -279 -92 l-290 0 0 23 c0
64 51 184 102 243 66 75 196 106 284 69z"/>
<path d="M17516 3830 c-202 -32 -407 -133 -513 -254 -88 -100 -123 -200 -123
-351 1 -227 69 -365 234 -477 105 -72 227 -120 476 -189 159 -43 278 -95 310
-136 40 -51 20 -122 -44 -156 -36 -19 -57 -22 -161 -21 -139 1 -214 13 -340
56 -108 37 -170 67 -249 120 -32 22 -62 36 -66 31 -10 -10 -200 -432 -200
-444 0 -11 108 -74 179 -104 99 -41 296 -94 418 -111 179 -25 474 -16 603 19
121 33 177 57 261 113 175 116 259 275 259 489 0 203 -62 328 -223 452 -99 76
-328 170 -507 207 -136 28 -250 76 -293 124 -10 11 -20 36 -24 56 -12 75 55
120 193 132 134 11 350 -52 532 -156 41 -23 75 -40 77 -38 2 2 47 95 100 208
l96 205 -28 23 c-37 30 -212 115 -289 141 -135 45 -252 62 -439 66 -99 2 -207
0 -239 -5z"/>
<path d="M16401 3815 c-103 -19 -204 -72 -289 -150 -80 -74 -70 -79 -92 40 -6
33 -14 68 -16 78 -5 16 -28 17 -300 17 l-294 0 0 -995 0 -995 335 0 335 0 0
627 0 627 63 59 c75 70 180 125 263 137 56 7 162 1 240 -16 38 -7 31 -35 79
295 29 197 34 246 23 252 -46 29 -247 43 -347 24z"/>
<path d="M9473 3088 c4 -752 4 -736 54 -892 50 -153 168 -289 309 -356 100
-47 168 -61 320 -67 121 -5 151 -3 225 16 109 27 209 76 282 135 33 26 61 45
64 42 3 -3 13 -38 22 -78 l17 -73 292 -3 292 -2 0 995 0 995 -335 0 -335 0 0
-692 0 -693 -43 -26 c-73 -46 -120 -66 -181 -79 -137 -28 -229 18 -279 140
-22 55 -22 60 -25 703 l-3 647 -340 0 -341 0 5 -712z"/>
</g>
</svg>
