<?xml version="1.0" standalone="no"?>
<!DOCTYPE svg PUBLIC "-//W3C//DTD SVG 20010904//EN"
 "http://www.w3.org/TR/2001/REC-SVG-20010904/DTD/svg10.dtd">
<svg version="1.0" xmlns="http://www.w3.org/2000/svg"
 width="3264.000000pt" height="809.000000pt" viewBox="0 0 3264.000000 809.000000"
 preserveAspectRatio="xMidYMid meet">

<g transform="translate(0.000000,809.000000) scale(0.100000,-0.100000)"
fill="#000000" stroke="none">
<path d="M6135 7199 c-268 -29 -576 -161 -779 -333 -249 -212 -414 -498 -456
-791 -13 -93 -13 -275 1 -371 57 -409 344 -781 766 -993 178 -89 384 -147 573
-161 163 -12 1004 -12 1098 0 203 27 389 180 463 383 22 60 23 76 27 452 2
215 7 394 12 398 8 9 42 -32 130 -162 89 -132 186 -272 229 -332 23 -31 41
-61 41 -67 0 -6 3 -12 8 -14 7 -3 144 -197 263 -373 30 -44 57 -82 60 -85 3
-3 18 -24 33 -47 32 -52 109 -104 196 -133 91 -31 239 -31 329 0 58 19 121 55
174 100 24 20 99 125 121 170 41 85 45 131 46 524 1 208 4 384 7 392 14 38 44
4 183 -206 80 -121 150 -228 155 -237 6 -10 82 -126 169 -258 88 -132 175
-264 194 -294 105 -163 264 -235 466 -210 159 20 300 118 371 259 57 114 55
59 55 1279 l0 1121 -150 0 -150 0 -2 -1117 c-3 -1167 -2 -1139 -43 -1179 -33
-34 -122 -58 -174 -48 -15 3 -40 18 -57 32 -17 15 -126 167 -244 337 -197 286
-424 616 -643 933 -48 70 -113 165 -145 210 -31 46 -77 113 -102 149 -25 35
-72 104 -105 153 -61 91 -80 106 -115 95 -20 -6 -20 -15 -20 -906 0 -990 2
-952 -61 -984 -42 -22 -129 -16 -167 12 -25 19 -62 67 -200 268 -31 44 -70
100 -86 124 -17 23 -35 50 -41 60 -5 9 -12 18 -15 21 -5 4 -175 245 -230 326
-8 12 -29 42 -46 66 -16 23 -68 97 -114 163 -46 66 -97 140 -114 164 -17 23
-35 50 -41 59 -5 8 -15 23 -22 31 -7 9 -51 72 -99 141 -48 69 -102 145 -119
170 -17 25 -66 95 -108 156 -89 130 -98 138 -132 130 l-25 -6 0 -863 c0 -815
-1 -864 -19 -902 -21 -45 -61 -89 -106 -113 -27 -15 -89 -17 -610 -17 l-580 0
-105 27 c-219 58 -378 144 -536 292 -152 142 -250 310 -289 497 -24 112 -20
288 9 401 59 233 215 458 416 600 76 54 221 128 306 156 159 54 238 62 576 62
l318 0 0 150 0 150 -337 -1 c-186 -1 -369 -5 -408 -10z"/>
<path d="M7401 7199 c-56 -11 -160 -59 -206 -96 -46 -36 -108 -125 -131 -188
-18 -47 -19 -99 -24 -812 -5 -714 -6 -763 -23 -780 -16 -16 -46 -18 -325 -21
-178 -2 -346 1 -399 7 -288 34 -506 214 -558 460 -20 97 -19 162 5 256 51 199
209 365 422 443 72 26 75 26 396 30 l322 4 0 149 0 149 -323 0 c-349 0 -417
-8 -571 -64 -211 -76 -409 -249 -509 -444 -144 -281 -142 -564 5 -825 47 -83
63 -103 153 -192 129 -128 267 -207 468 -267 69 -20 94 -21 637 -25 l565 -4
30 31 30 31 5 882 c5 811 6 885 22 914 25 46 76 73 135 73 90 0 54 43 517
-610 107 -151 199 -279 203 -285 5 -5 53 -73 108 -150 167 -236 276 -389 295
-415 118 -162 300 -422 300 -430 0 -5 9 -10 20 -10 19 0 20 11 22 898 3 842 4
899 21 930 10 18 32 42 50 52 57 35 177 22 222 -24 6 -6 36 -48 67 -92 118
-170 188 -269 196 -279 4 -5 41 -57 81 -115 161 -233 444 -638 473 -680 18
-25 127 -180 243 -346 279 -399 246 -357 273 -339 l22 16 0 1090 0 1089 -155
0 -155 0 0 -600 0 -600 -25 0 c-17 0 -29 8 -35 23 -5 12 -48 76 -95 142 -47
66 -88 127 -92 135 -4 8 -9 17 -13 20 -6 5 -143 201 -245 350 -28 41 -80 116
-114 165 -35 50 -79 115 -99 145 -102 151 -237 220 -432 220 -166 0 -283 -38
-378 -125 -67 -60 -97 -112 -122 -210 -18 -72 -20 -111 -20 -472 0 -456 2
-448 -87 -315 -28 42 -106 158 -174 257 -67 99 -201 297 -296 440 -96 143
-194 278 -217 300 -50 47 -131 89 -212 110 -63 16 -201 18 -273 4z"/>
<path d="M1440 3210 l0 -1810 375 0 375 0 2 808 3 807 745 0 745 0 3 -808 2
-807 375 0 375 0 0 1810 0 1810 -372 -2 -373 -3 -3 -672 -2 -673 -750 0 -750
0 0 675 0 675 -375 0 -375 0 0 -1810z"/>
<path d="M11829 4383 c0 -498 -3 -634 -12 -619 -37 58 -131 167 -173 202 -118
99 -251 162 -396 190 -129 25 -346 15 -463 -20 -173 -52 -302 -131 -435 -265
-231 -233 -365 -558 -401 -976 -21 -242 8 -538 73 -745 173 -551 579 -870
1078 -847 296 13 515 130 694 371 l51 69 5 -169 5 -169 338 -3 337 -2 0 1810
0 1810 -350 0 -350 0 -1 -637z m-420 -859 c277 -73 435 -388 418 -834 -11
-299 -73 -489 -201 -615 -103 -102 -214 -145 -376 -145 -300 0 -477 162 -555
506 -22 96 -31 387 -16 508 37 288 169 491 369 566 110 41 237 46 361 14z"/>
<path d="M12900 3210 l0 -1810 350 0 350 0 -2 1808 -3 1807 -347 3 -348 2 0
-1810z"/>
<path d="M13967 5013 c-4 -3 -7 -150 -7 -325 l0 -318 363 2 362 3 0 320 0 320
-356 3 c-195 1 -358 -1 -362 -5z"/>
<path d="M20550 3210 l0 -1810 168 2 167 3 3 1543 c1 848 6 1542 10 1542 4 0
16 -15 27 -32 10 -18 66 -105 124 -193 57 -88 185 -284 284 -435 99 -151 194
-297 212 -325 18 -27 88 -135 157 -240 68 -104 151 -230 183 -280 72 -111 141
-217 329 -505 81 -124 228 -349 327 -500 98 -151 184 -282 189 -290 6 -8 51
-77 100 -152 l89 -138 181 0 180 0 0 1810 0 1810 -164 0 c-139 0 -165 -2 -170
-16 -3 -8 -6 -698 -6 -1532 0 -834 0 -1523 0 -1529 0 -25 -15 -13 -45 35 -16
26 -75 117 -130 202 -56 85 -141 216 -190 290 -48 74 -148 227 -222 340 -142
217 -365 559 -522 800 -52 80 -140 215 -196 300 -56 85 -155 236 -219 335 -65
99 -204 313 -310 475 l-193 295 -181 3 -182 2 0 -1810z"/>
<path d="M5645 4154 c-100 -18 -264 -68 -330 -101 -441 -222 -675 -676 -675
-1308 0 -453 135 -839 383 -1093 153 -156 326 -254 556 -315 109 -28 128 -30
306 -31 120 -1 218 4 265 13 383 69 664 248 854 546 56 87 146 297 146 341 0
12 -52 14 -352 14 -194 0 -358 -4 -364 -8 -6 -4 -24 -31 -40 -61 -88 -165
-231 -244 -439 -245 -115 0 -186 15 -268 56 -110 55 -208 177 -250 313 -24 78
-49 211 -45 247 l3 33 894 3 894 2 -6 208 c-10 336 -53 545 -157 768 -32 69
-110 197 -129 214 -4 3 -28 31 -55 62 -136 162 -384 290 -655 339 -129 23
-413 25 -536 3z m401 -595 c74 -13 166 -57 221 -104 93 -80 171 -247 176 -379
l2 -61 -525 0 -525 0 -3 27 c-5 41 35 194 69 265 59 124 191 226 324 251 70
14 190 14 261 1z"/>
<path d="M8237 4149 c-305 -53 -532 -191 -665 -403 -77 -121 -122 -284 -122
-438 l0 -78 334 0 334 0 7 77 c15 150 93 245 240 290 85 25 334 25 420 -1 171
-52 229 -123 230 -281 0 -105 -15 -141 -73 -180 -56 -37 -131 -52 -432 -90
-385 -49 -530 -80 -700 -154 -308 -133 -460 -378 -460 -741 0 -248 74 -467
206 -609 269 -290 832 -323 1205 -70 77 52 164 133 211 196 21 30 43 51 47 49
5 -3 14 -34 21 -68 15 -77 58 -218 72 -235 8 -10 97 -13 384 -13 l374 0 0 54
c0 53 -2 56 -51 103 -52 49 -77 88 -100 158 -10 31 -14 235 -19 940 -5 818 -7
905 -23 960 -75 256 -268 418 -596 500 -156 39 -311 55 -534 54 -151 0 -229
-5 -310 -20z m783 -1594 c0 -113 -5 -191 -16 -243 -57 -276 -288 -451 -598
-453 -102 -1 -161 12 -221 50 -66 40 -96 82 -120 165 -33 114 -8 247 63 327
57 65 218 128 459 179 162 35 262 66 355 109 35 16 66 30 71 30 4 1 7 -73 7
-164z"/>
<path d="M18705 4163 c-11 -2 -56 -11 -100 -19 -275 -53 -520 -204 -686 -423
-54 -73 -144 -242 -177 -336 -114 -320 -130 -777 -41 -1130 94 -371 319 -669
619 -820 191 -96 339 -129 580 -130 169 0 242 8 365 41 343 91 601 293 765
599 41 77 102 244 96 262 -5 11 -68 13 -347 11 l-342 -3 -39 -65 c-104 -173
-236 -244 -448 -243 -332 1 -509 180 -548 554 -4 42 -6 81 -4 88 3 8 239 11
894 11 l891 0 -6 223 c-6 226 -12 285 -48 440 -36 161 -105 326 -188 452 -56
85 -204 236 -288 292 -137 93 -310 158 -498 188 -88 14 -397 20 -450 8z m390
-618 c182 -63 278 -172 320 -360 9 -39 15 -94 13 -121 l-3 -49 -512 -3 c-410
-2 -513 0 -514 10 -6 71 21 189 64 281 57 122 151 203 287 249 71 24 268 20
345 -7z"/>
<path d="M16348 4136 c-206 -37 -379 -127 -532 -277 l-81 -80 -5 148 -5 148
-347 3 -348 2 0 -1340 0 -1340 360 0 359 0 3 857 c3 778 5 863 21 916 66 224
199 337 432 368 101 13 222 0 290 -32 55 -26 118 -90 144 -145 55 -117 54 -97
58 -1066 l4 -898 360 0 360 0 -3 1032 -3 1033 -27 96 c-45 166 -122 301 -217
387 -89 79 -238 150 -375 178 -102 21 -353 26 -448 10z"/>
<path d="M13967 4073 c-4 -3 -7 -606 -7 -1340 l0 -1333 365 0 365 0 -2 1338
-3 1337 -356 3 c-195 1 -358 -1 -362 -5z"/>
<path d="M24475 4065 c-250 -41 -436 -136 -600 -307 -120 -123 -191 -247 -255
-439 -70 -209 -84 -314 -85 -624 0 -239 3 -283 23 -385 69 -354 198 -595 411
-764 166 -133 339 -195 596 -216 433 -34 833 148 1037 472 73 115 135 280 141
374 l2 39 -152 3 -151 3 -11 -53 c-40 -188 -129 -328 -275 -431 -144 -102
-276 -141 -486 -142 -164 0 -226 12 -347 70 -168 79 -293 204 -380 380 -47 95
-56 116 -82 215 -26 97 -41 212 -41 311 l0 79 978 2 977 3 3 60 c6 98 -17 341
-44 468 -102 486 -387 787 -824 872 -120 23 -324 28 -435 10z m360 -270 c83
-17 181 -57 250 -101 104 -66 223 -208 276 -331 51 -117 99 -323 99 -424 l0
-49 -820 0 -820 0 0 26 c0 83 47 285 92 394 107 257 314 434 568 485 88 18
270 18 355 0z"/>
<path d="M29955 4065 c-200 -33 -381 -115 -496 -227 -136 -132 -203 -280 -215
-473 -10 -170 36 -325 127 -429 133 -151 308 -228 796 -352 387 -98 512 -143
605 -216 121 -95 150 -301 68 -473 -53 -109 -149 -190 -288 -243 -123 -47
-182 -57 -357 -56 -148 0 -166 2 -239 27 -254 89 -417 278 -443 517 l-8 75
-154 3 -154 3 6 -74 c8 -110 33 -201 87 -312 170 -352 550 -539 1025 -505 399
29 684 184 815 444 56 112 73 202 66 346 -9 191 -49 292 -161 406 -130 132
-327 220 -676 304 -515 123 -605 157 -705 259 -68 68 -88 121 -92 239 -4 88
-1 112 18 165 75 206 272 317 565 317 386 0 646 -199 668 -510 l2 -35 155 0
155 0 -3 55 c-4 67 -34 190 -63 254 -115 260 -335 420 -659 481 -123 23 -335
28 -445 10z"/>
<path d="M25740 3992 c0 -16 83 -281 327 -1052 102 -323 124 -392 177 -560
182 -579 239 -761 256 -810 10 -30 26 -81 34 -112 l17 -58 158 0 159 0 10 38
c5 20 40 145 76 277 37 132 75 272 86 310 10 39 32 117 48 175 17 58 51 182
77 275 101 370 119 435 160 580 23 83 64 232 91 332 27 101 53 181 59 180 5
-2 19 -41 31 -88 12 -46 32 -120 44 -164 43 -153 59 -211 124 -445 35 -130 74
-269 85 -310 11 -41 31 -115 45 -165 69 -249 190 -688 207 -750 10 -38 29
-108 42 -155 l23 -85 160 -3 160 -2 10 37 c6 21 77 247 158 503 81 256 154
485 161 510 8 25 30 95 49 155 19 61 89 283 156 495 182 579 229 728 256 808
13 40 24 79 24 87 0 13 -24 15 -150 15 -132 0 -150 -2 -158 -17 -6 -10 -33
-97 -62 -193 -28 -96 -76 -254 -105 -350 -29 -96 -78 -258 -108 -360 -31 -102
-85 -284 -122 -405 -36 -121 -75 -251 -86 -290 -12 -38 -38 -126 -59 -195 -21
-69 -53 -174 -70 -235 -33 -112 -37 -121 -44 -114 -5 4 -72 237 -105 359 -11
41 -50 183 -87 315 -37 132 -75 269 -84 305 -20 71 -99 357 -208 745 -38 138
-80 287 -92 332 -12 45 -28 87 -35 93 -8 7 -70 10 -171 8 l-158 -3 -52 -190
c-28 -104 -75 -278 -103 -385 -29 -107 -72 -267 -96 -355 -24 -88 -59 -221
-79 -295 -19 -74 -67 -254 -106 -400 -96 -356 -110 -406 -125 -468 -21 -88
-22 -87 -80 103 -19 61 -61 198 -95 305 -62 199 -71 227 -158 505 -104 330
-277 888 -317 1020 -13 44 -30 98 -38 120 l-14 40 -151 3 c-142 2 -152 1 -152
-16z"/>
</g>
</svg>
